<svg xmlns="http://www.w3.org/2000/svg" width="768" height="768"><g fill="#FFF"><path d="M619.315 24.313c-5.188 1.149-14.202 3.997-16.499 5.188-.382.213-1.956.978-3.486 1.658-4.253 1.956-6.379 3.019-9.143 4.55-1.403.766-3.019 1.701-3.614 1.999-.935.553-5.655 3.359-7.824 4.72-9.525 5.91-27.894 19.347-37.292 27.299-.808.68-2.423 2.041-3.572 2.976-1.148.936-2.338 1.999-2.721 2.339-.383.383-1.531 1.361-2.594 2.211a46.875 46.875 0 00-2.976 2.509c-.596.553-3.274 2.934-5.953 5.273-2.679 2.296-5.911 5.187-7.187 6.378-1.233 1.148-2.508 2.339-2.764 2.551-5.57 5.103-13.011 12.076-13.734 12.842-.936.935-2.892 1.361-3.189.595-.043-.17-1.659-1.658-3.53-3.274-3.061-2.636-6.208-5.443-7.653-6.846-.298-.298-2.127-1.871-4.083-3.572-1.956-1.701-4.592-4.039-5.868-5.23-1.233-1.191-2.508-2.381-2.763-2.636-.256-.213-2.679-2.424-5.358-4.848s-4.933-4.55-5.018-4.762c-.085-.17-.595-.341-1.148-.341-.68 0-2.381 1.616-6.378 6.039-3.019 3.359-5.656 6.25-5.911 6.505-.255.213-3.146 3.402-6.378 7.017-3.274 3.614-6.123 6.761-6.378 7.016-.255.212-3.147 3.401-6.379 7.016-3.274 3.614-6.123 6.761-6.378 7.016-.255.212-3.146 3.402-6.378 7.016-3.274 3.614-6.123 6.761-6.378 7.016-.256.213-3.147 3.402-6.379 7.016-3.274 3.615-6.123 6.761-6.378 7.016-.255.213-3.147 3.402-6.378 7.016-3.274 3.615-6.123 6.761-6.379 7.017-.255.212-3.146 3.401-6.42 7.016-3.232 3.614-6.209 6.888-6.549 7.271-.638.595-5.017 5.4-10.247 11.183-1.276 1.446-2.509 2.807-2.764 3.062-.468.467-6.124 6.718-9.993 10.97-1.276 1.446-2.509 2.807-2.764 3.062-.468.468-6.123 6.718-9.993 10.971-1.275 1.445-2.508 2.806-2.764 3.061-.595.68-6.846 7.526-9.78 10.801-2.593 2.849-4.422 4.805-9.354 10.077l-2.892 3.104h-3.657c-1.998 0-8.419.298-14.287.638-5.826.34-13.309.638-16.584.638-3.274 0-10.715.298-16.583.638-5.826.34-13.395.638-16.796.638-3.402 0-9.015.212-12.544.425-3.487.255-12.204.595-19.348.85-19.9.553-34.145 1.319-35.165 1.829-.553.255-5.06 3.487-9.993 7.229-4.975 3.699-10.163 7.483-11.481 8.376-1.361.893-2.679 1.871-2.976 2.126-.298.256-4.167 3.147-8.632 6.421-4.423 3.274-9.015 6.676-10.121 7.484-1.148.851-2.763 2.594-3.656 3.912-.893 1.318-3.615 5.4-6.124 9.1-2.508 3.699-4.549 7.016-4.549 7.356 0 .34.978 1.829 2.168 3.274 1.191 1.446 2.807 3.402 3.572 4.338 2.169 2.593 4.89 6.038 6.931 8.674.978 1.276 1.956 2.466 2.126 2.594.17.127 1.829 2.126 3.7 4.465 1.871 2.338 3.486 4.337 3.657 4.464.34.298 5.017 6.166 7.101 8.845.978 1.318 1.956 2.509 2.126 2.636.17.128 1.828 2.126 3.699 4.465 1.871 2.339 3.487 4.337 3.615 4.465.297.255 4.294 5.188 7.228 8.93 1.956 2.466 2.679 3.359 9.993 12.288 2.339 2.849 5.23 6.379 6.378 7.867 3.529 4.465 7.186 8.972 7.441 9.185.128.127 1.744 2.126 3.615 4.464 1.871 2.339 3.614 4.423 3.869 4.678.255.212 1.106 1.275 1.871 2.339.808 1.063 2.382 2.976 3.487 4.294 1.106 1.276 2.041 2.637 2.041 2.977 0 .638-2.424 4.124-3.827 5.57-.34.34-1.701 1.956-2.976 3.529a711.093 711.093 0 01-6.804 8.25c-2.466 2.976-5.23 6.335-6.166 7.484a133.322 133.322 0 01-4.252 5.102c-.595.68-1.701 2.084-2.423 3.062-.723 1.02-1.489 1.828-1.701 1.828-1.616 0 3.316 6.549 11.651 15.521 2.211 2.338 2.296 2.934.893 4.805-1.361 1.786-2.126 2.976-2.552 3.912-.17.34-.808 1.403-1.488 2.296-.638.893-1.191 2.041-1.191 2.509 0 .51 1.744 2.551 4.38 5.145 15.946 15.605 19.433 19.135 19.433 19.56 0 .255-.723 1.233-1.616 2.168-.851.936-3.955 4.508-6.889 7.867-2.891 3.402-5.485 6.336-5.74 6.591-.255.212-1.233 1.361-2.126 2.551-1.744 2.169-3.062 3.785-3.827 4.635-.255.255-1.191 1.403-2.126 2.594-2.424 3.019-8.207 10.035-9.313 11.268a80.34 80.34 0 00-2.381 2.977 80.185 80.185 0 01-2.381 2.976c-1.233 1.361-7.314 8.76-8.589 10.376-.638.807-.936 1.786-.936 2.976 0 2.722.765 3.7 3.189 4.337a81.01 81.01 0 002.552.596c.467 0 1.573-1.021 15.988-14.883 5.017-4.805 11.098-10.631 13.564-12.969 2.466-2.296 8.547-8.377 13.565-13.48 5.017-5.102 9.397-9.269 9.78-9.269.553 0 4.124 2.849 9.907 7.909.638.552 2.934 2.508 5.103 4.337 4.975 4.167 5.91 4.975 8.377 7.186 2.296 2.126 3.316 2.551 3.997 1.701.595-.68 9.057-7.101 9.397-7.101.128 0 2.934 1.956 6.166 4.337 7.739 5.741 11.141 8.164 11.608 8.377.468.17 3.317-2.509 20.198-19.177 7.059-6.974 12.969-12.672 13.097-12.672.17 0 1.318.723 2.636 1.573 1.276.893 2.764 1.914 3.317 2.254.553.34 3.529 2.339 6.591 4.465 3.104 2.083 6.038 4.124 6.591 4.465.553.34 2.636 1.785 4.677 3.189 1.999 1.403 3.997 2.721 4.38 2.976.425.213 1.403.893 2.211 1.488a33.687 33.687 0 002.211 1.489c.383.212 4.082 2.721 8.207 5.528 4.125 2.806 7.951 5.4 8.504 5.74.553.34 3.53 2.339 6.591 4.465 3.104 2.083 6.038 4.124 6.591 4.465.553.34 3.487 2.338 6.591 4.464 3.062 2.084 6.038 4.125 6.591 4.465.553.34 4.38 2.934 8.504 5.741 4.125 2.806 7.952 5.4 8.505 5.74.552.34 3.529 2.339 6.59 4.465 3.062 2.083 5.911 3.997 6.294 4.252.425.213 1.998 1.318 3.529 2.424 1.573 1.148 3.019 2.041 3.274 2.041.681 0 15.181-11.609 17.434-13.947 1.021-1.063 2.041-2.296 2.254-2.807.212-.467.765-1.488 1.233-2.168a40.566 40.566 0 001.276-2.126c.255-.468.808-1.446 1.275-2.127a39.095 39.095 0 001.276-2.126c.255-.467.765-1.36 1.191-1.998.382-.638 3.019-4.89 5.825-9.483 2.806-4.592 5.443-8.844 5.826-9.482.425-.638.935-1.531 1.19-1.998.255-.468.808-1.446 1.276-2.127a38.994 38.994 0 001.275-2.126 31.14 31.14 0 011.191-1.998c.383-.595 1.658-2.679 2.807-4.55l2.041-3.444-.468-10.546a2590.83 2590.83 0 00-.936-19.22 2202.37 2202.37 0 01-.808-20.41c-.212-6.421-.51-12.374-.637-13.182-.128-.808-.426-6.676-.638-12.969-.213-6.336-.553-15.393-.808-20.198s-.638-13.012-.893-18.284c-.255-5.273-.553-11.566-.68-14.033l-.256-4.464 1.446-1.574c.808-.893 2.126-2.296 2.934-3.189.808-.893 3.487-3.827 5.911-6.506 2.423-2.678 4.635-5.102 4.847-5.357.468-.468 5.911-6.421 10.035-10.971 1.276-1.446 2.509-2.806 2.764-3.062.468-.467 6.123-6.718 9.993-10.97 1.276-1.446 2.509-2.807 2.764-3.062.468-.468 6.123-6.718 9.992-10.97 1.276-1.446 2.509-2.807 2.764-3.062.426-.468 5.868-6.421 9.993-10.971 3.019-3.359 5.188-5.783 5.783-6.378.213-.255 2.424-2.679 4.848-5.358 4.549-5.017 7.101-7.824 7.866-8.674.255-.255 1.488-1.616 2.764-3.062 4.465-4.932 9.567-10.545 10.035-10.97.255-.255 2.126-2.382 4.21-4.72 2.083-2.339 3.997-4.465 4.209-4.72 3.955-4.167 5.061-5.4 6.634-7.186 1.531-1.786 7.611-8.547 9.185-10.163.212-.255 2.423-2.679 4.847-5.358 4.933-5.443 7.229-7.951 7.909-8.674.213-.256 2.126-2.382 4.21-4.72 2.083-2.339 3.954-4.465 4.21-4.72 1.275-1.233 7.526-8.164 8.291-9.185.511-.595.893-1.318.893-1.531 0-.212-2.126-2.381-4.762-4.805a563.808 563.808 0 01-5.188-4.89c-.255-.212-2.679-2.423-5.358-4.847-2.679-2.424-5.102-4.635-5.357-4.848-.298-.255-1.616-1.53-2.977-2.806-1.403-1.318-4.38-4.04-6.633-6.123-2.297-2.084-4.167-3.955-4.167-4.167 0-.426 3.571-5.316 4.422-6.081.297-.255 1.743-2.041 3.231-4.04 1.489-1.998 2.849-3.699 2.977-3.827.128-.127.808-.978 1.488-1.913.723-.936 1.403-1.786 1.531-1.914.468-.382 14.075-18.964 17.732-24.195 3.019-4.337 10.418-15.392 10.843-16.2.17-.341.638-1.148 1.063-1.786 1.233-1.914 8.844-14.543 9.142-15.223.17-.34.978-1.786 1.786-3.189 1.403-2.381 7.611-14.84 8.972-17.987.85-1.913 1.786-4.082 2.466-5.74.298-.723.893-2.084 1.276-2.977.383-.893.68-1.871.68-2.211 0-.34.255-1.233.596-1.999 1.063-2.551 2.551-7.951 3.869-14.032.468-2.168.68-5.4.723-9.993.042-6.973-.468-9.822-2.466-13.692-1.531-3.061-5.188-5.612-11.141-7.866-2.339-.893-11.821-.851-15.818.042zm-21.389 24.408c3.7 3.317 8.122 7.271 9.865 8.845 1.744 1.53 3.36 3.019 3.615 3.231.255.255 2.083 1.871 4.082 3.615 1.998 1.743 3.827 3.359 4.082 3.571 1.743 1.659 4.635 4.253 7.484 6.676 5.995 5.188 6.08 5.316 5.57 6.421-.255.553-1.063 2.296-1.828 3.955-.723 1.615-1.531 3.274-1.744 3.614a9.04 9.04 0 00-.638 1.276c-.127.34-.382.935-.595 1.275-.212.341-1.105 2.126-1.998 3.912-.893 1.829-1.829 3.275-2.041 3.317-.256 0-.723-.383-1.063-.893-9.185-13.182-17.86-22.537-27.64-29.893a961.161 961.161 0 00-6.591-4.805c-5.953-3.657-12.161-7.356-12.416-7.356-.17-.043-.893-.468-1.531-1.021l-1.19-.978 3.401-2.168c4.635-2.977 11.949-7.314 12.374-7.314.17 0 .553-.298.851-.638.297-.34.68-.638.893-.638.212 0 3.401 2.722 7.058 5.996zm-28.319 10.375a51.21 51.21 0 002.509 1.361c.34.128 2.636 1.488 5.102 2.977a574.64 574.64 0 015.315 3.231 45.932 45.932 0 012.382 1.659c.85.68 1.701 1.19 1.871 1.19.808 0 9.482 7.186 13.649 11.268 5.358 5.273 7.867 8.25 13.65 16.159 3.954 5.4 5.23 7.441 5.315 8.462.085.765-1.616 3.827-5.273 9.525a21.03 21.03 0 00-1.063 1.785c-.212.383-2.424 3.785-5.017 7.612-2.552 3.827-4.976 7.399-5.316 7.951-2.466 3.87-26.618 36.059-27.596 36.739-.17.128-1.191 1.404-2.297 2.849-1.105 1.446-2.253 2.892-2.551 3.189-1.446 1.531-3.232 4.125-3.487 5.061-.255.935-2.126 3.104-9.312 10.588-1.446 1.53-5.485 5.825-8.972 9.567-3.487 3.742-6.846 7.314-7.441 7.909-3.7 3.869-7.739 8.164-12.544 13.352a1202.142 1202.142 0 01-9.568 10.12c-2.211 2.296-4.082 4.337-4.167 4.507-.042.17 1.446 1.744 3.359 3.487 1.914 1.744 3.7 3.359 3.955 3.615.255.212 2.083 1.828 4.082 3.571a224.158 224.158 0 013.827 3.402c.127.128 2.976 2.722 6.378 5.741 3.402 3.019 6.378 5.698 6.634 5.953.255.212 1.913 1.743 3.699 3.359 1.828 1.616 3.274 3.189 3.274 3.444 0 .638-3.529 4.465-4.082 4.465-.213 0-1.063-.638-1.871-1.403-.808-.766-3.402-3.104-5.74-5.188-2.339-2.084-4.465-3.954-4.72-4.21-1.446-1.403-4.593-4.209-7.527-6.761-1.871-1.573-3.614-3.104-3.912-3.401-.255-.298-1.998-1.871-3.869-3.487-1.829-1.658-4.295-3.87-5.528-5.018-1.191-1.105-2.339-1.998-2.594-1.998-.212 0-2.976 2.721-6.123 6.038-3.147 3.317-5.91 6.208-6.123 6.463-.255.255-3.019 3.232-6.166 6.634-3.146 3.401-6.208 6.676-6.803 7.271a1067.772 1067.772 0 00-12.332 13.139c-5.4 5.826-9.822 10.546-12.416 13.182-1.531 1.573-1.488 2.169.213 3.657.808.68 3.146 2.806 5.23 4.677 2.083 1.914 5.91 5.358 8.462 7.654a206.115 206.115 0 014.89 4.465c.127.127 1.19 1.063 2.338 2.083 1.191 1.021 3.742 3.317 5.741 5.146a520.917 520.917 0 015.698 5.187c2.253 2.041 2.253 1.999.085 4.72-1.361 1.701-2.679 1.956-3.7.766-.765-.851-7.313-6.846-10.375-9.44-1.148-1.021-2.211-1.956-2.339-2.084a206.492 206.492 0 00-4.89-4.465 1822.905 1822.905 0 01-14.415-13.096c-1.19-1.106-2.466-2.041-2.806-2.041-.383 0-2.679 2.168-5.188 4.762-2.466 2.636-5.272 5.57-6.165 6.506-.893.935-4.21 4.465-7.357 7.866-3.146 3.402-6.208 6.676-6.803 7.272-4.805 4.975-8.717 9.142-13.607 14.415-3.147 3.401-6.208 6.676-6.804 7.271-.595.638-2.083 2.211-3.359 3.572l-2.339 2.423 2.552 2.424c1.36 1.318 3.572 3.317 4.847 4.465 1.276 1.148 3.955 3.572 5.953 5.358 1.999 1.828 5.741 5.187 8.292 7.484 2.594 2.296 4.763 4.294 4.89 4.464.128.128 1.743 1.574 3.614 3.232 4.593 4.04 7.017 6.378 7.017 6.804-.043.17-.851 1.233-1.871 2.296-2.084 2.296-2.169 2.296-5.571-.851a395.186 395.186 0 01-5.74-5.23c-1.999-1.786-3.997-3.572-4.465-4.04a392.125 392.125 0 00-4.465-3.954c-3.019-2.636-5.995-5.4-8.674-7.909-.255-.213-1.999-1.786-3.87-3.444-1.871-1.659-4.039-3.615-4.847-4.338-1.574-1.403-2.764-1.658-3.317-.722-.298.51-3.147 3.571-12.671 13.607-.256.255-3.02 3.231-6.166 6.633-3.147 3.402-6.931 7.484-8.462 9.1-3.657 3.827-4.465 4.677-7.271 7.739-1.276 1.36-4.805 5.187-7.867 8.419-11.226 11.949-10.035 10.29-11.481 15.35-.425 1.404-1.02 3.189-1.318 3.955-.34.765-.595 1.658-.595 1.998 0 .341-.255 1.234-.596 1.999-.722 1.786-1.488 3.997-1.956 5.655a57.955 57.955 0 01-1.275 3.615c-.51 1.275-1.063 2.806-1.233 3.401-.638 2.041-3.912 8.888-5.188 10.844-.425.68-.935 1.573-1.106 1.913-1.063 2.296-18.752 26.576-21.09 29-.298.298-1.404 1.701-2.509 3.104-2.552 3.317-17.094 17.647-17.902 17.647-.383 0-.723-.171-.808-.383-.127-.383-1.361-1.403-8.929-7.229-1.956-1.531-3.615-2.891-3.742-3.019-.213-.298-8.037-6.463-12.969-10.205-1.659-1.276-3.36-2.636-3.742-3.019-.383-.425-1.956-1.616-3.487-2.764-1.488-1.106-2.892-2.381-3.019-2.807-.17-.552.808-2.338 3.104-5.783 3.232-4.847 3.402-5.017 6.506-6.548 1.701-.893 3.401-1.616 3.657-1.616 1.148 0 1.02-.978-.341-2.764-.765-1.02-1.573-1.913-1.743-1.913-.425 0-1.063.638-6.038 6.166-2.339 2.551-5.188 5.697-6.336 6.931-2.254 2.381-3.061 3.656-4.295 6.888-.722 1.786-1.063 2.722-2.508 6.038-.298.766-1.191 2.934-1.956 4.805-.766 1.871-1.659 4.082-2.041 4.89-.893 2.041-1.574 3.7-2.424 5.953-.425 1.063-.978 2.467-1.318 3.189a22.551 22.551 0 00-.766 2.042c-.17.51-.425.637-.85.425-1.318-.766-10.035-9.313-10.035-9.865 0-.298.425-.978.978-1.489.51-.51 2.721-3.019 4.932-5.57 2.211-2.594 4.337-4.975 4.678-5.358 1.956-2.041 4.507-4.932 8.121-9.099 2.211-2.594 4.125-4.763 4.295-4.89.128-.128 1.658-1.829 3.359-3.827 1.701-1.999 3.232-3.7 3.359-3.827.128-.128 2.169-2.424 4.508-5.103 4.635-5.358 4.38-5.06 6.803-7.696a207.445 207.445 0 004.678-5.316c4.847-5.613 14.117-16.073 15.308-17.349.255-.255 2.381-2.679 4.677-5.357 2.339-2.679 4.337-4.975 4.507-5.103.128-.128 1.574-1.743 3.189-3.614a327.432 327.432 0 014.508-5.103c3.189-3.487 3.316-3.657 2.891-4.465-.595-1.148-3.742-3.487-4.422-3.316-.298.085-20.155 19.56-44.053 43.287a46637.149 46637.149 0 00-43.585 43.33c-.425.382-8.291-6.209-8.291-6.974 0-.34 15.307-10.928 19.049-13.182.383-.255 1.404-.935 2.254-1.616.85-.637 1.701-1.148 1.828-1.148 1.234 0 18.965-16.966 18.965-18.157 0-.68-3.231-2.764-4.039-2.593-.638.127-1.276 1.403-2.339 4.762-.595 1.871-2.296 3.827-4.762 5.528-1.234.85-3.19 2.211-4.38 3.019-2.084 1.446-3.402 1.871-3.7 1.106-.085-.298-6.931-7.825-9.099-9.993-.255-.255-2.126-2.381-4.21-4.72s-3.997-4.465-4.21-4.72c-7.271-7.696-13.011-14.117-13.011-14.585 0-.255 1.105-1.743 2.466-3.317 1.318-1.616 3.104-3.742 3.912-4.805a80.185 80.185 0 012.381-2.976c2.807-3.232 4.04-4.72 5.783-7.016 1.063-1.404 4.082-4.55 6.719-7.016 2.636-2.467 5.102-4.763 5.485-5.146.383-.34 2.679-2.381 5.145-4.464 12.246-10.503 15.521-12.629 27.342-17.987 1.573-.723 3.104-1.318 3.401-1.318.298 0 .893-.255 1.361-.553.468-.34 1.233-.723 1.701-.85.893-.256 2.509-.851 6.591-2.424a58.09 58.09 0 013.614-1.276c1.616-.425 3.955-1.276 5.188-1.828.553-.255 3.019-2.764 5.528-5.571 5.783-6.506 5.102-5.698 7.611-8.377a283.847 283.847 0 003.997-4.422c1.531-1.786 7.739-8.632 9.185-10.163.212-.255 2.126-2.381 4.21-4.719 2.083-2.339 3.954-4.465 4.209-4.72 1.063-1.106 3.955-4.295 7.399-8.165 1.999-2.253 3.87-4.337 4.082-4.592 2.211-2.254 7.356-8.079 7.654-8.589.383-.681-.383-1.489-4.677-5.231-1.786-1.53-8.632-7.696-10.121-9.142-.255-.212-2.381-2.126-4.719-4.209-2.339-2.084-4.465-3.955-4.72-4.21-.808-.808-7.102-6.421-9.61-8.589-1.319-1.149-2.424-2.339-2.424-2.679-.043-.808 2.849-4.295 3.572-4.295.34 0 1.403.723 2.424 1.658 1.02.893 4.89 4.38 8.674 7.739 3.742 3.359 8.334 7.442 10.163 9.1 1.828 1.616 3.529 3.189 3.784 3.444.255.213 2.084 1.829 4.082 3.572 1.999 1.743 4.593 4.082 5.741 5.188 1.19 1.105 2.338 2.041 2.594 2.041.467 0 5.442-5.23 9.524-9.993 1.574-1.786 2.679-3.019 6.634-7.186.212-.255 2.126-2.381 4.21-4.72 2.083-2.339 3.954-4.465 4.209-4.72.468-.425 5.273-5.74 10.035-10.971 3.955-4.422 5.273-5.868 5.953-6.59.383-.383 2.297-2.509 4.253-4.72 1.998-2.212 4.039-4.465 4.592-4.975.51-.511.935-1.106.935-1.319 0-.212-1.573-1.828-3.486-3.529-1.871-1.743-3.657-3.359-3.912-3.614-.256-.213-2.679-2.424-5.358-4.848s-5.103-4.635-5.358-4.847c-.723-.681-3.274-3.019-8.674-7.909-7.569-6.846-8.165-7.399-8.972-8.25-.468-.467-.808-1.02-.808-1.19 0-.51 3.444-4.167 3.912-4.167.212 0 .935.51 1.573 1.148 1.573 1.573 3.657 3.444 8.759 7.994 2.339 2.083 4.465 3.954 4.72 4.21 1.361 1.318 8.335 7.611 10.163 9.184a72.044 72.044 0 012.339 2.084c1.148 1.403 8.972 8.121 9.482 8.121.34 0 2.041-1.573 3.742-3.444 1.743-1.913 3.699-4.039 4.38-4.805.638-.723 2.551-2.849 4.21-4.72a335.533 335.533 0 013.231-3.614c.17-.128 2.169-2.339 4.465-4.89 3.784-4.21 9.057-10.035 11.183-12.331.425-.468 2.211-2.467 3.955-4.465 1.743-1.999 3.401-3.827 3.614-4.082.255-.255 1.403-1.531 2.594-2.764 4.125-4.38 8.674-9.78 8.674-10.291-.042-.297-1.02-1.318-2.253-2.338-2.084-1.701-4.125-3.487-7.527-6.634-.808-.722-4.252-3.827-7.654-6.846-3.401-3.019-6.25-5.613-6.378-5.783-.127-.127-1.743-1.573-3.614-3.189-1.871-1.616-4.252-3.699-5.273-4.635-1.02-.935-2.296-2.126-2.849-2.636-.553-.51-1.02-1.021-1.02-1.106 0-.127.935-1.233 2.126-2.466l2.126-2.254 1.36 1.319c2.212 2.041 3.7 3.401 7.357 6.633 1.871 1.658 3.487 3.104 3.614 3.232.128.17 2.339 2.168 4.89 4.465 4.422 3.954 10.461 9.439 12.331 11.183 2.892 2.636 7.357 6.506 7.569 6.506.17 0 2.637-2.679 10.291-11.269 1.658-1.828 3.189-3.529 3.444-3.784.255-.255 2.126-2.381 4.21-4.72 2.083-2.339 3.997-4.465 4.209-4.72 1.106-1.148 3.742-4.082 7.272-8.037 2.083-2.338 3.954-4.464 4.209-4.72.255-.255 1.829-1.956 3.444-3.784 5.103-5.783 11.056-12.331 11.524-12.757.255-.255 2.169-2.423 4.295-4.89 3.486-4.039 9.865-10.29 17.561-17.221a95.02 95.02 0 002.977-2.764c.297-.34 11.523-10.333 14.67-13.012 6.123-5.23 9.057-7.738 11.055-9.312 1.191-.935 2.509-2.041 2.977-2.424 1.828-1.53 8.164-6.378 16.328-12.544 1.021-.765 2.126-1.403 2.382-1.403.297 0 1.36.468 2.381 1.063zM305.078 246.405c0 .468-4.507 5.698-9.61 11.098-1.148 1.276-4.124 4.508-6.548 7.187-2.424 2.678-4.635 5.102-4.848 5.357-.255.255-1.445 1.531-2.636 2.764-1.191 1.276-3.827 4.21-5.91 6.549-2.084 2.338-3.955 4.464-4.21 4.72-2.211 2.296-5.485 5.868-9.185 9.95-2.424 2.679-4.635 5.102-4.847 5.357-.511.511-6.336 6.889-9.993 10.971-3.317 3.699-6.506 7.101-7.356 7.867-1.786 1.573-.936 2.551 10.715 12.586 2.679 2.339 4.975 4.337 5.103 4.507.127.128 1.871 1.701 3.869 3.402 3.657 3.147 8.25 7.186 13.692 11.991 1.574 1.404 2.849 2.892 2.849 3.317 0 .808-1.786 1.786-4.464 2.509-1.531.425-4.55 1.488-9.143 3.189-.935.34-2.508.935-3.486 1.318-1.021.383-2.509.978-3.317 1.318-.808.34-2.041.893-2.764 1.191-4.167 1.786-11.183 5.443-12.927 6.676-.553.425-1.233.765-1.488.765-.51 0-2.551-1.786-7.059-6.123-1.53-1.446-4.847-4.55-7.441-6.846-2.551-2.339-5.783-5.273-7.186-6.591-3.317-3.146-2.807-2.679-8.334-7.654-2.679-2.423-5.103-4.635-5.358-4.847-3.189-3.019-5.868-5.486-9.95-9.185-2.679-2.466-5.401-4.933-5.996-5.528-3.019-2.891-6.123-5.74-10.588-9.78-2.679-2.424-5.102-4.635-5.358-4.847-4.039-3.827-5.825-5.443-9.95-9.185-2.679-2.424-5.102-4.635-5.357-4.848-.298-.255-1.616-1.53-2.977-2.806-3.274-3.104-11.183-10.29-12.416-11.311-.511-.425-.936-.935-.936-1.105 0-.298 6.293-5.103 12.119-9.27 2.254-1.616 16.158-11.779 22.579-16.541l5.145-3.785 12.927-.68c7.101-.383 15.818-.68 19.305-.68 3.529 0 11.353-.298 17.434-.638 6.08-.34 14.032-.638 17.646-.638 3.615 0 11.651-.298 17.859-.638 6.209-.34 14.628-.638 18.71-.68 4.082-.043 9.567-.213 12.119-.383 7.484-.468 9.567-.468 9.567 0zm-166.473 41.927c.213.212 2.509 2.338 5.103 4.677 2.551 2.296 5.187 4.678 5.783 5.273a562.049 562.049 0 0010.588 9.78c2.679 2.424 5.102 4.635 5.357 4.847 4.04 3.827 5.826 5.443 9.95 9.185 2.679 2.424 5.103 4.635 5.358 4.848 3.274 3.104 5.953 5.57 10.588 9.822 3.062 2.764 5.741 5.273 5.996 5.528.255.213 1.531 1.403 2.764 2.594 1.275 1.148 4.507 4.124 7.186 6.548 2.679 2.424 5.103 4.635 5.358 4.848 4.039 3.827 5.825 5.442 9.95 9.184a834.608 834.608 0 017.143 6.549c1.234 1.19 2.467 2.211 2.679 2.296.978.383 0 1.531-4.805 5.655-5.187 4.423-7.186 6.209-14.542 13.182-4.422 4.21-4.167 4.21-7.186.298-2.126-2.807-6.761-8.547-7.101-8.845-.128-.127-1.744-2.126-3.615-4.465-1.871-2.338-3.529-4.337-3.699-4.464-.17-.128-1.148-1.319-2.126-2.637-2.169-2.764-6.761-8.547-7.144-8.844-.128-.128-1.743-2.126-3.614-4.465-1.871-2.339-3.53-4.337-3.7-4.465-.17-.127-1.148-1.318-2.126-2.636-2.168-2.764-6.761-8.547-7.144-8.845-.127-.127-1.743-2.126-3.614-4.465-1.871-2.338-3.529-4.337-3.699-4.464-.17-.128-1.148-1.319-2.126-2.637-2.169-2.764-6.761-8.547-7.144-8.844-.128-.128-1.743-2.126-3.614-4.465-1.871-2.339-3.53-4.337-3.7-4.465-.17-.127-1.148-1.318-2.126-2.636-1.701-2.169-5.953-7.484-7.611-9.483-5.401-6.378-5.273-5.868-2.467-9.652 1.276-1.701 2.679-3.699 3.104-4.38.426-.723 1.191-1.701 1.659-2.253l.893-.936 1.488 1.361a170.43 170.43 0 011.956 1.871zm316.703 107.41c.425 6.166.723 12.799.723 14.798 0 1.998.297 7.441.638 12.118.34 4.678.638 10.503.638 12.97 0 2.466.297 8.291.637 12.969.341 4.677.638 10.588.638 13.181 0 2.552.298 8.207.638 12.544.34 4.338.638 10.078.638 12.757 0 2.679.297 8.419.638 12.714.637 8.589.723 8.122-1.914 12.161-.468.681-1.02 1.659-1.275 2.126a39.752 39.752 0 01-1.276 2.126c-.468.681-1.021 1.659-1.276 2.127-.255.467-.765 1.36-1.19 1.998-.383.638-2.424 3.955-4.55 7.356-2.084 3.402-4.167 6.719-4.55 7.357-.425.637-.978 1.53-1.191 1.998-1.913 3.572-8.291 13.565-8.802 13.692-.382.128-5.698-4.38-10.588-8.972-3.189-3.019-5.868-5.485-9.95-9.185-2.679-2.466-5.4-4.932-5.995-5.528-3.019-2.891-6.124-5.74-10.588-9.78-2.679-2.423-5.103-4.634-5.358-4.847-4.04-3.827-5.826-5.443-9.95-9.185-2.679-2.423-5.103-4.635-5.358-4.847-.298-.255-1.616-1.531-2.977-2.807a593.691 593.691 0 00-7.186-6.591c-2.551-2.338-5.187-4.719-5.783-5.315a562.049 562.049 0 00-10.588-9.78c-2.678-2.424-5.102-4.635-5.357-4.847-.255-.255-2.382-2.254-4.763-4.465s-4.337-4.295-4.337-4.678c0-.382.298-1.148.595-1.743.34-.595 1.446-2.806 2.509-4.89 2.126-4.252 3.104-6.633 5.698-13.607.34-.935.893-2.339 1.233-3.104.34-.765.595-1.658.595-1.999 0-.34.256-1.233.596-1.998.85-2.084 1.573-4.21 1.956-5.868.638-2.509 1.445-4.677 1.828-4.677.213 0 .893.51 1.573 1.148 3.912 3.869 10.503 10.205 17.009 16.285 4.082 3.827 7.824 7.357 8.335 7.867 9.397 9.312 10.332 9.993 11.736 8.547 1.233-1.233 7.568-8.249 9.227-10.205.978-1.148 2.041-2.297 2.296-2.594 2.381-2.466 5.4-5.783 8.589-9.355 2.084-2.339 3.955-4.465 4.21-4.72.553-.553 2.509-2.679 5.783-6.378 4.507-4.933 9.567-10.546 10.035-10.971.213-.255 2.126-2.381 4.21-4.72a212.946 212.946 0 013.997-4.465 378.12 378.12 0 004.465-4.89c2.338-2.593 5.783-6.378 7.654-8.461 1.913-2.084 3.529-3.955 3.572-4.125.085-.213.382-.383.68-.383.383 0 .723 3.062 1.233 11.141zm-122.25 71.394c.893.681 8.376 7.527 10.46 9.568.255.212 2.679 2.423 5.358 4.847a576.118 576.118 0 0110.588 9.78c.595.595 3.019 2.764 5.357 4.89 2.339 2.084 4.763 4.295 5.358 4.89 3.274 3.147 6.208 5.826 10.588 9.78 4.125 3.742 5.911 5.358 9.95 9.185.255.213 2.679 2.424 5.358 4.847a576.383 576.383 0 0110.588 9.78c.595.596 3.019 2.764 5.358 4.89 2.338 2.084 4.762 4.295 5.357 4.89 1.489 1.446 9.653 8.973 11.226 10.376l1.276 1.105-1.914 1.744a107.537 107.537 0 01-5.102 4.167l-3.232 2.509-4.167-2.849c-2.254-1.531-4.592-3.104-5.145-3.445-.553-.34-5.23-3.529-10.418-7.016-5.188-3.529-9.865-6.676-10.418-7.016-.553-.34-4.38-2.934-8.504-5.74-4.167-2.807-7.952-5.4-8.505-5.741-.552-.34-3.486-2.381-6.591-4.464-3.061-2.127-6.038-4.125-6.59-4.465-.553-.34-6.124-4.082-12.332-8.292-6.25-4.21-11.778-7.952-12.331-8.292-.553-.34-3.529-2.381-6.591-4.465-3.104-2.126-6.038-4.124-6.591-4.464-3.317-2.126-6.166-4.125-7.739-5.401l-1.786-1.445 3.274-3.912c4.423-5.273 8.505-10.588 13.395-17.392 1.446-2.041 2.806-3.742 2.976-3.742.213 0 .893.383 1.489.893z"/><path d="M540.182 90.18c-1.744 1.573-4.55 4.082-6.294 5.655-1.7 1.531-3.274 2.849-3.486 2.934-.936.383-.17 1.403 2.041 2.807 2.679 1.701 3.231 1.786 4.805.893.595-.298 2.083-1.106 3.274-1.701 1.233-.596 2.339-1.276 2.466-1.531.298-.425 11.694-.553 11.694-.128 0 .128-.468.808-1.063 1.531-.596.681-1.064 1.403-1.064 1.574 0 .552 1.021 1.573 5.741 5.612 2.594 2.169 4.89 4.21 5.103 4.465.255.255 2.551 2.254 5.102 4.465 2.594 2.169 4.805 4.167 4.933 4.38.297.382 2.423.17 3.784-.34 1.318-.511 1.701.425 2.084 4.89.34 4.337.34 4.464-.893 7.186-.681 1.531-1.488 3.316-1.829 3.954-.893 1.744-.765 3.317.426 5.443.595 1.021 1.275 2.381 1.53 3.062 1.021 2.551 1.659 2.253 5.273-2.594 1.871-2.466 4.295-5.571 5.4-6.889 2.211-2.508 2.382-3.104 1.446-4.975-.34-.638-.935-2.041-1.318-3.104-.425-1.063-.978-2.509-1.276-3.189-.297-.723-.893-2.126-1.275-3.189a61.633 61.633 0 00-1.276-3.189c-.595-1.403-1.658-4.167-2.636-6.804a62.265 62.265 0 00-1.191-2.976c-.51-1.276-1.403-3.53-2.636-6.804-.936-2.424-1.999-4.507-2.424-4.762-.213-.17-1.106-.425-1.914-.596-.85-.17-2.849-.722-4.507-1.233a108.984 108.984 0 00-4.465-1.275c-.808-.17-2.041-.553-2.764-.766-.68-.255-2.423-.765-3.827-1.19a136.769 136.769 0 01-4.252-1.233c-.935-.256-2.849-.851-4.252-1.234-1.403-.425-3.402-1.02-4.465-1.36-1.063-.341-2.126-.596-2.381-.596-.255 0-1.871 1.276-3.614 2.807zm-5.486 35.293c-.34.17-1.53 1.233-2.636 2.466-2.679 2.892-2.636 3.7.255 6.804 2.084 2.253 2.466 2.509 4.082 2.551 1.616.043 1.956-.17 3.827-2.211 1.106-1.233 2.126-2.594 2.254-3.062.68-2.594-5.188-7.526-7.782-6.548zm10.801 10.333c-2.126 1.318-4.082 4.082-4.082 5.868 0 1.318.297 1.828 2.296 3.614 1.786 1.616 2.551 2.041 3.742 2.041 1.828 0 1.998-.127 4.21-2.679 2.338-2.721 2.338-3.954-.043-6.548-1.021-1.063-2.424-2.211-3.189-2.509-1.658-.723-1.361-.765-2.934.213zm-35.676 14.84c-15.861 3.529-23.982 20.708-16.584 34.868 1.191 2.253 6.294 7.739 7.187 7.739.297 0 .723.212 1.02.51.723.723 3.274 1.573 6.889 2.339 8.377 1.701 17.306-2.424 22.664-10.588.85-1.318 1.573-2.594 1.573-2.807 0-.255.255-.978.596-1.658.892-1.828 1.956-6.633 1.956-8.93-.043-2.593-1.319-7.568-2.764-10.417-1.531-3.062-3.317-5.188-6.124-7.272-3.189-2.381-3.997-2.806-6.633-3.486-3.827-1.021-6.208-1.064-9.78-.298zm7.016 6.633c3.104.766 4.635 1.616 7.101 3.827 2.467 2.211 4.678 6.421 4.975 9.398.255 2.466-.255 6.548-1.105 8.759-.851 2.339-4.423 6.931-6.464 8.377-7.611 5.485-18.964 2.381-23.514-6.421-1.021-1.998-1.148-2.636-1.148-6.676 0-5.145.68-7.441 3.189-10.885 4.125-5.656 10.375-7.995 16.966-6.379zm-56.979 24.493c-1.659.383-4.848 3.614-15.946 15.946a388.308 388.308 0 01-6.591 7.186c-1.531 1.616-2.976 3.146-3.189 3.402-.255.255-2.126 2.381-4.21 4.719-3.231 3.572-4.932 5.443-8.589 9.313-.213.255-2.424 2.679-4.847 5.358-3.742 4.124-5.358 5.91-9.185 9.95-.213.255-2.424 2.679-4.848 5.357-3.742 4.125-5.357 5.911-9.184 9.95-.213.256-2.424 2.679-4.848 5.358-3.742 4.125-5.358 5.911-9.185 9.95-.212.256-2.423 2.679-4.847 5.358-3.742 4.125-5.358 5.911-9.185 9.95-.212.255-2.424 2.679-4.847 5.358-3.742 4.125-5.358 5.911-9.185 9.95-.213.255-2.424 2.679-4.848 5.358-3.742 4.124-5.357 5.91-9.184 9.95-.213.255-2.424 2.679-4.848 5.358s-4.507 4.975-4.677 5.102c-.128.128-.851 1.021-1.616 1.956-1.148 1.531-1.361 2.126-1.361 4.125 0 2.296.085 2.424 2.254 4.635 2.849 2.849 5.57 5.4 11.779 10.971 4.124 3.741 5.91 5.357 9.95 9.184.255.213 2.678 2.424 5.357 4.848 5.698 5.145 5.146 4.635 8.335 7.696 2.891 2.764 4.677 3.785 6.548 3.785 1.914 0 4.805-1.446 6.166-3.062.978-1.191 8.377-9.227 9.822-10.715.213-.256 1.361-1.531 2.509-2.807 1.106-1.276 4.082-4.507 6.548-7.186 2.467-2.679 4.72-5.06 4.933-5.315 3.912-4.38 8.292-9.228 9.142-10.078 1.488-1.573 7.952-8.632 10.631-11.651 1.913-2.169 3.316-3.614 7.058-7.611.213-.256 2.424-2.679 4.848-5.358 2.423-2.679 4.635-5.103 4.847-5.358 3.827-4.039 5.443-5.825 9.185-9.95 3.742-4.125 5.358-5.911 9.185-9.95.212-.255 2.423-2.679 4.847-5.358 3.742-4.125 5.358-5.91 9.185-9.95.212-.255 2.424-2.679 4.847-5.358 3.742-4.124 5.358-5.91 9.185-9.95.213-.255 2.424-2.679 4.848-5.358 2.423-2.679 4.634-5.102 4.847-5.357 1.233-1.234 8.972-9.695 11.438-12.459 3.062-3.445 3.572-4.678 3.105-8.037-.213-1.786-.553-2.296-3.147-4.762-3.402-3.232-10.886-10.078-13.905-12.799-1.148-1.021-2.636-2.339-3.231-2.934-2.424-2.297-5.911-5.486-9.95-9.143-2.339-2.126-4.933-4.464-5.741-5.272-4.465-4.253-6.633-5.188-10.205-4.295zm3.869 7.101c.893 1.021 4.338 4.21 10.163 9.482 4.125 3.742 5.911 5.358 9.95 9.185.255.213 2.679 2.424 5.358 4.848 2.679 2.423 5.91 5.4 7.144 6.548 1.233 1.191 2.466 2.211 2.678 2.296.723.255.383 1.999-.595 3.062-.553.595-2.976 3.274-5.4 5.953-2.424 2.679-4.635 5.102-4.848 5.358-3.827 4.039-5.442 5.825-9.184 9.95-2.424 2.679-4.635 5.102-4.848 5.357-.255.298-1.531 1.616-2.806 2.977-1.318 1.403-4.04 4.38-6.123 6.633-2.084 2.297-4.04 4.168-4.423 4.168-.68 0-6.803-5.358-13.649-11.949-.383-.34-2.764-2.551-5.358-4.848-2.551-2.338-4.89-4.422-5.145-4.677-.936-.85-9.355-8.632-11.311-10.418-1.148-.978-2.041-2.126-2.041-2.509.043-.637 1.021-1.786 7.186-8.334a910.062 910.062 0 006.421-7.016c2.424-2.679 4.635-5.103 4.847-5.358 3.827-4.039 5.443-5.825 9.185-9.95 2.424-2.679 5.315-5.868 6.421-7.016 1.106-1.191 2.466-2.636 3.019-3.274 1.148-1.318 2.424-1.488 3.359-.468zm-43.415 48.177c.128.128 2.127 1.914 4.465 4.04 4.125 3.699 7.654 6.931 9.95 9.142.596.595 3.019 2.764 5.358 4.89 2.339 2.084 4.465 3.997 4.72 4.252.255.213 2.551 2.339 5.06 4.678 6.293 5.783 6.166 5.655 6.166 6.378 0 .298-.255.765-.51.935-.298.171-1.404 1.319-2.467 2.467-1.701 1.913-10.162 11.098-11.268 12.289-.255.255-2.169 2.381-4.252 4.719-2.126 2.339-4.295 4.763-4.89 5.358a444.646 444.646 0 00-9.142 9.95c-4.423 4.933-5.996 6.591-6.379 6.591-.212 0-1.998-1.531-4.209-3.657-.255-.212-2.679-2.423-5.358-4.847-4.125-3.742-5.911-5.358-9.95-9.185-.255-.212-2.679-2.424-5.358-4.847a837.81 837.81 0 01-7.144-6.549c-1.275-1.19-3.019-2.806-3.954-3.614-.893-.808-1.659-1.658-1.659-1.871 0-.213.681-1.191 1.574-2.169 1.446-1.658 9.185-10.077 10.163-11.055.212-.255 2.423-2.679 4.847-5.358 2.424-2.679 4.635-5.103 4.848-5.358.255-.255 1.445-1.531 2.636-2.764 1.19-1.275 3.061-3.359 4.21-4.635 1.105-1.275 3.954-4.379 6.293-6.931 4.592-4.89 4.294-4.805 6.25-2.849zm-41.671 49.411c5.528 5.187 7.314 6.846 11.694 10.758 2.338 2.083 4.762 4.294 5.357 4.89 1.021.978 6.294 5.825 11.651 10.673 1.148 1.063 2.892 2.594 3.785 3.444l1.701 1.531-3.36 3.784c-1.871 2.041-4.422 4.848-5.74 6.251-3.189 3.402-2.721 2.892-7.654 8.334-2.424 2.679-4.635 5.103-4.847 5.358-3.827 4.04-5.443 5.826-9.185 9.95-2.424 2.679-4.805 5.273-5.23 5.741-.426.467-2.254 2.423-4.04 4.337-1.786 1.956-3.444 3.529-3.699 3.529-.426 0-2.084-1.446-6.804-5.91-1.148-1.106-4.039-3.7-6.378-5.783-2.339-2.084-4.763-4.295-5.358-4.89a497.873 497.873 0 00-9.737-8.93c-6.081-5.443-9.355-8.632-9.355-9.1 0-.255.935-1.445 2.041-2.593 1.148-1.191 4.039-4.338 6.463-7.017 3.742-4.124 5.358-5.91 9.185-9.95.212-.255 2.424-2.679 4.847-5.357 2.424-2.679 4.635-5.103 4.848-5.358 3.827-4.04 5.443-5.826 9.185-9.95 5.187-5.783 6.25-6.804 6.931-6.804.297.043 1.956 1.403 3.699 3.062zm-68.758 72.074c-4.592 4.508-10.588 11.396-11.056 12.799-.765 2.084 0 4.423 1.957 6.124 1.318 1.148 9.524 8.674 10.843 9.95.255.212 2.678 2.423 5.357 4.847 2.679 2.424 5.911 5.4 7.144 6.549 3.572 3.401 6.421 3.614 9.312.722 3.53-3.486 10.12-10.8 10.843-11.991.426-.68.766-1.786.766-2.466 0-1.403-1.701-3.912-4.082-5.953-1.404-1.233-9.61-8.717-10.971-10.078-.255-.212-2.679-2.424-5.358-4.847a860.006 860.006 0 01-5.102-4.635 44.616 44.616 0 00-1.829-1.659c-1.318-1.105-1.956-1.36-3.657-1.36-1.913 0-2.253.17-4.167 1.998zm4.805 5.571c.68.425 10.588 9.355 14.032 12.629.255.212 2.297 2.126 4.55 4.209 2.254 2.084 4.125 4.04 4.125 4.295 0 .255-1.276 1.914-2.849 3.657a515.238 515.238 0 01-3.912 4.295c-1.148 1.318-1.573 1.445-2.339.637-1.828-1.743-5.74-5.357-9.822-9.014-4.338-3.912-6.294-5.698-11.226-10.375l-1.829-1.744 1.361-1.403c.765-.723 2.636-2.764 4.167-4.465 2.934-3.189 2.977-3.232 3.742-2.721zM129.853 732.548h25.594V595.983h-25.594zm57.873 0h25.403v-55.963h46.604v-19.673h-46.604v-40.683h59.21v-20.246h-84.613zm135.037 0h25.594v-116.51h38.009v-20.055H284.754v20.055h38.009zm84.803 0h25.594V595.983h-25.594zm49.622.325c1.559 0 2.794-1.235 2.794-2.73a2.774 2.774 0 00-2.794-2.795c-1.495 0-2.731 1.235-2.731 2.795a2.747 2.747 0 002.731 2.73zm22.685.26c7.735 0 11.96-4.16 11.96-9.88 0-6.63-4.16-8.385-11.44-9.685-6.955-1.235-9.295-2.665-9.295-6.565 0-3.64 3.185-6.045 7.93-6.045 4.94 0 7.735 1.95 8.58 6.305h3.315c-.91-6.695-5.72-9.23-11.83-9.23-5.72 0-11.18 3.315-11.18 9.1 0 5.85 3.38 7.995 11.7 9.49 6.37 1.17 8.905 2.535 8.905 6.89 0 4.095-2.925 6.695-8.645 6.695-6.305 0-9.165-3.185-9.75-7.8h-3.315c.455 6.5 5.07 10.725 13.065 10.725zm20.019 11.245h3.445v-19.565c1.821 4.16 6.175 8.255 12.936 8.255 8.774 0 15.274-6.695 15.274-17.355v-.52c0-10.595-6.695-17.16-15.274-17.16-5.981 0-10.985 4.03-12.936 8.45v-7.93h-3.445zm16.121-14.235c-7.086 0-12.741-5.005-12.741-14.3v-.52c0-9.36 6.046-14.365 12.676-14.365 6.5 0 12.024 5.005 12.024 14.365v.52c0 9.1-4.81 14.3-11.959 14.3zm32.695 2.925c5.72 0 9.36-2.405 11.505-5.72v5.2h3.445v-22.49c0-8.645-4.81-12.025-11.895-12.025-6.435 0-12.285 2.99-13.065 10.14h3.38c.78-5.005 4.42-7.215 9.555-7.215 5.98 0 8.58 2.73 8.58 9.1v3.055h-7.085c-8.385 0-15.925 2.405-15.925 10.27 0 6.435 4.81 9.685 11.505 9.685zm.26-2.795c-5.59 0-8.32-2.535-8.32-6.89 0-6.11 5.525-7.605 12.61-7.605h6.955v5.785c0 5.07-5.005 8.71-11.245 8.71zm38.804 2.795c7.736 0 13.585-5.005 14.495-12.285h-3.185c-.845 6.11-5.655 9.36-11.31 9.36-7.15 0-12.675-5.265-12.675-14.235v-.52c0-8.97 5.591-14.43 12.675-14.43 5.33 0 9.945 2.665 10.79 8.385h3.381c-.911-7.67-7.281-11.31-14.171-11.31-8.97 0-16.25 6.955-16.25 17.355v.52c0 10.335 7.085 17.16 16.25 17.16zm36.01 0c7.28 0 12.676-3.51 14.106-10.01h-3.445c-1.17 4.745-5.005 7.085-10.661 7.085-8.06 0-12.415-5.2-12.545-14.3h26.911v-1.235c0-11.245-6.695-16.575-14.885-16.575-9.101 0-15.601 7.085-15.601 17.355v.52c0 10.205 6.305 17.16 16.12 17.16zm-12.415-20.02c.651-7.41 5.331-12.09 11.896-12.09 6.63 0 10.984 3.835 11.31 12.09z"/></g></svg>